<mxfile host="drawio-plugin" modified="2023-03-11T11:10:32.676Z" agent="5.0 (Windows NT 6.2; Win64; x64) AppleWebKit/537.36 (KHTML, like Gecko) Chrome/104.0.5112.102 Safari/537.36" etag="czSiW10kM_EWg3Zds6k8" version="20.5.3" type="embed"><diagram id="C5RBs43oDa-KdzZeNtuy" name="Page-1"><mxGraphModel dx="1673" dy="1095" grid="1" gridSize="10" guides="1" tooltips="1" connect="1" arrows="1" fold="1" page="1" pageScale="1" pageWidth="4681" pageHeight="3300" math="0" shadow="0"><root><mxCell id="WIyWlLk6GJQsqaUBKTNV-0"/><mxCell id="WIyWlLk6GJQsqaUBKTNV-1" parent="WIyWlLk6GJQsqaUBKTNV-0"/><mxCell id="zkfFHV4jXpPFQw0GAbJ--0" value="&lt;&lt;GameObject&gt;&gt;" style="swimlane;fontStyle=0;align=center;verticalAlign=top;childLayout=stackLayout;horizontal=1;startSize=26;horizontalStack=0;resizeParent=1;resizeLast=0;collapsible=1;marginBottom=0;rounded=0;shadow=0;strokeWidth=1;" parent="WIyWlLk6GJQsqaUBKTNV-1" vertex="1"><mxGeometry x="760" y="330" width="160" height="154" as="geometry"><mxRectangle x="220" y="120" width="160" height="26" as="alternateBounds"/></mxGeometry></mxCell><mxCell id="217" value="- height : float" style="text;html=1;align=center;verticalAlign=middle;resizable=0;points=[];autosize=1;strokeColor=none;fillColor=none;fontSize=11;" parent="zkfFHV4jXpPFQw0GAbJ--0" vertex="1"><mxGeometry y="26" width="160" height="30" as="geometry"/></mxCell><mxCell id="218" value="- width: float" style="text;html=1;align=center;verticalAlign=middle;resizable=0;points=[];autosize=1;strokeColor=none;fillColor=none;fontSize=11;" parent="zkfFHV4jXpPFQw0GAbJ--0" vertex="1"><mxGeometry y="56" width="160" height="30" as="geometry"/></mxCell><mxCell id="zkfFHV4jXpPFQw0GAbJ--4" value="" style="line;html=1;strokeWidth=1;align=left;verticalAlign=middle;spacingTop=-1;spacingLeft=3;spacingRight=3;rotatable=0;labelPosition=right;points=[];portConstraint=eastwest;" parent="zkfFHV4jXpPFQw0GAbJ--0" vertex="1"><mxGeometry y="86" width="160" height="8" as="geometry"/></mxCell><mxCell id="219" value="+ getHeight() : int" style="text;html=1;align=center;verticalAlign=middle;resizable=0;points=[];autosize=1;strokeColor=none;fillColor=none;fontSize=11;" parent="zkfFHV4jXpPFQw0GAbJ--0" vertex="1"><mxGeometry y="94" width="160" height="30" as="geometry"/></mxCell><mxCell id="220" value="+ getWidth() : int" style="text;html=1;align=center;verticalAlign=middle;resizable=0;points=[];autosize=1;strokeColor=none;fillColor=none;fontSize=11;" parent="zkfFHV4jXpPFQw0GAbJ--0" vertex="1"><mxGeometry y="124" width="160" height="30" as="geometry"/></mxCell><mxCell id="24" value="" style="endArrow=block;dashed=1;endFill=0;endSize=12;html=1;rounded=0;exitX=0.5;exitY=0;exitDx=0;exitDy=0;entryX=0.5;entryY=1;entryDx=0;entryDy=0;edgeStyle=orthogonalEdgeStyle;" parent="WIyWlLk6GJQsqaUBKTNV-1" source="35" target="zkfFHV4jXpPFQw0GAbJ--0" edge="1"><mxGeometry width="160" relative="1" as="geometry"><mxPoint x="519.9999999999998" y="750.0000000000001" as="sourcePoint"/><mxPoint x="720" y="850" as="targetPoint"/><Array as="points"><mxPoint x="540" y="610"/><mxPoint x="840" y="610"/></Array></mxGeometry></mxCell><mxCell id="25" value="" style="endArrow=block;dashed=1;endFill=0;endSize=12;html=1;exitX=0.5;exitY=0;exitDx=0;exitDy=0;rounded=0;strokeColor=default;entryX=0.5;entryY=1;entryDx=0;entryDy=0;edgeStyle=orthogonalEdgeStyle;" parent="WIyWlLk6GJQsqaUBKTNV-1" source="39" target="zkfFHV4jXpPFQw0GAbJ--0" edge="1"><mxGeometry width="160" relative="1" as="geometry"><mxPoint x="719.9999999999998" y="750.0000000000001" as="sourcePoint"/><mxPoint x="720" y="680" as="targetPoint"/><Array as="points"><mxPoint x="745" y="610"/><mxPoint x="840" y="610"/></Array></mxGeometry></mxCell><mxCell id="29" value="" style="endArrow=block;dashed=1;endFill=0;endSize=12;html=1;rounded=0;strokeColor=default;edgeStyle=orthogonalEdgeStyle;entryX=0.5;entryY=1;entryDx=0;entryDy=0;" parent="WIyWlLk6GJQsqaUBKTNV-1" source="43" target="zkfFHV4jXpPFQw0GAbJ--0" edge="1"><mxGeometry width="160" relative="1" as="geometry"><mxPoint x="919.9999999999998" y="750.0000000000001" as="sourcePoint"/><mxPoint x="870" y="480" as="targetPoint"/><Array as="points"><mxPoint x="945" y="610"/><mxPoint x="840" y="610"/></Array></mxGeometry></mxCell><mxCell id="30" value="" style="endArrow=block;dashed=1;endFill=0;endSize=12;html=1;rounded=0;strokeColor=default;exitX=0.5;exitY=0;exitDx=0;exitDy=0;entryX=0.5;entryY=1;entryDx=0;entryDy=0;edgeStyle=orthogonalEdgeStyle;" parent="WIyWlLk6GJQsqaUBKTNV-1" source="51" target="zkfFHV4jXpPFQw0GAbJ--0" edge="1"><mxGeometry width="160" relative="1" as="geometry"><mxPoint x="1119.9999999999998" y="750" as="sourcePoint"/><mxPoint x="830" y="450.4761904761905" as="targetPoint"/><Array as="points"><mxPoint x="1140" y="610"/><mxPoint x="840" y="610"/></Array></mxGeometry></mxCell><mxCell id="31" value="PersonalGoalCard" style="swimlane;fontStyle=1;align=center;verticalAlign=top;childLayout=stackLayout;horizontal=1;startSize=26;horizontalStack=0;resizeParent=1;resizeParentMax=0;resizeLast=0;collapsible=1;marginBottom=0;" parent="WIyWlLk6GJQsqaUBKTNV-1" vertex="1"><mxGeometry x="460" y="1040" width="160" height="94" as="geometry"/></mxCell><mxCell id="211" value="- pattern: ItemType[][]" style="text;html=1;align=left;verticalAlign=middle;resizable=0;points=[];autosize=1;strokeColor=none;fillColor=none;fontSize=11;" parent="31" vertex="1"><mxGeometry y="26" width="160" height="30" as="geometry"/></mxCell><mxCell id="33" value="" style="line;strokeWidth=1;fillColor=none;align=left;verticalAlign=middle;spacingTop=-1;spacingLeft=3;spacingRight=3;rotatable=0;labelPosition=right;points=[];portConstraint=eastwest;strokeColor=inherit;" parent="31" vertex="1"><mxGeometry y="56" width="160" height="8" as="geometry"/></mxCell><mxCell id="214" value="+ getPattern() : ItemType[][]" style="text;html=1;align=left;verticalAlign=middle;resizable=0;points=[];autosize=1;strokeColor=none;fillColor=none;fontSize=11;" parent="31" vertex="1"><mxGeometry y="64" width="160" height="30" as="geometry"/></mxCell><mxCell id="35" value="&lt;&lt;Card&gt;&gt;" style="swimlane;fontStyle=1;align=center;verticalAlign=top;childLayout=stackLayout;horizontal=1;startSize=26;horizontalStack=0;resizeParent=1;resizeParentMax=0;resizeLast=0;collapsible=1;marginBottom=0;" parent="WIyWlLk6GJQsqaUBKTNV-1" vertex="1"><mxGeometry x="460" y="749" width="160" height="34" as="geometry"/></mxCell><mxCell id="37" value="" style="line;strokeWidth=1;fillColor=none;align=left;verticalAlign=middle;spacingTop=-1;spacingLeft=3;spacingRight=3;rotatable=0;labelPosition=right;points=[];portConstraint=eastwest;strokeColor=inherit;" parent="35" vertex="1"><mxGeometry y="26" width="160" height="8" as="geometry"/></mxCell><mxCell id="39" value="Board" style="swimlane;fontStyle=1;align=center;verticalAlign=top;childLayout=stackLayout;horizontal=1;startSize=26;horizontalStack=0;resizeParent=1;resizeParentMax=0;resizeLast=0;collapsible=1;marginBottom=0;" parent="WIyWlLk6GJQsqaUBKTNV-1" vertex="1"><mxGeometry x="660" y="749" width="170" height="180" as="geometry"/></mxCell><mxCell id="192" value="- valid : boolean[9][9]" style="text;html=1;align=left;verticalAlign=middle;resizable=0;points=[];autosize=1;strokeColor=none;fillColor=none;fontSize=11;" parent="39" vertex="1"><mxGeometry y="26" width="170" height="30" as="geometry"/></mxCell><mxCell id="193" value="- tile : ItemCard [9][9]" style="text;html=1;align=left;verticalAlign=middle;resizable=0;points=[];autosize=1;strokeColor=none;fillColor=none;fontSize=11;" parent="39" vertex="1"><mxGeometry y="56" width="170" height="30" as="geometry"/></mxCell><mxCell id="41" value="" style="line;strokeWidth=1;fillColor=none;align=left;verticalAlign=middle;spacingTop=-1;spacingLeft=3;spacingRight=3;rotatable=0;labelPosition=right;points=[];portConstraint=eastwest;strokeColor=inherit;" parent="39" vertex="1"><mxGeometry y="86" width="170" height="4" as="geometry"/></mxCell><mxCell id="202" value="+ isValid(int, int) : boolean" style="text;html=1;align=left;verticalAlign=middle;resizable=0;points=[];autosize=1;strokeColor=none;fillColor=none;fontSize=11;" parent="39" vertex="1"><mxGeometry y="90" width="170" height="30" as="geometry"/></mxCell><mxCell id="203" value="+ peekCard(int, int) : ItemCard" style="text;html=1;align=left;verticalAlign=middle;resizable=0;points=[];autosize=1;strokeColor=none;fillColor=none;fontSize=11;" parent="39" vertex="1"><mxGeometry y="120" width="170" height="30" as="geometry"/></mxCell><mxCell id="204" value="+ popCard(int, int) : ItemCard" style="text;html=1;align=left;verticalAlign=middle;resizable=0;points=[];autosize=1;strokeColor=none;fillColor=none;fontSize=11;" parent="39" vertex="1"><mxGeometry y="150" width="170" height="30" as="geometry"/></mxCell><mxCell id="43" value="Bag" style="swimlane;fontStyle=1;align=center;verticalAlign=top;childLayout=stackLayout;horizontal=1;startSize=26;horizontalStack=0;resizeParent=1;resizeParentMax=0;resizeLast=0;collapsible=1;marginBottom=0;" parent="WIyWlLk6GJQsqaUBKTNV-1" vertex="1"><mxGeometry x="860" y="749" width="170" height="120" as="geometry"><mxRectangle x="860" y="749" width="60" height="30" as="alternateBounds"/></mxGeometry></mxCell><mxCell id="145" value="- cardsInside : Set&amp;lt;ItemCard&amp;gt;" style="text;html=1;align=left;verticalAlign=middle;resizable=0;points=[];autosize=1;strokeColor=none;fillColor=none;fontSize=11;" parent="43" vertex="1"><mxGeometry y="26" width="170" height="30" as="geometry"/></mxCell><mxCell id="147" value="- &lt;u&gt;maxCards : int&lt;/u&gt;" style="text;html=1;align=left;verticalAlign=middle;resizable=0;points=[];autosize=1;strokeColor=none;fillColor=none;fontSize=11;" parent="43" vertex="1"><mxGeometry y="56" width="170" height="30" as="geometry"/></mxCell><mxCell id="45" value="" style="line;strokeWidth=1;fillColor=none;align=left;verticalAlign=middle;spacingTop=-1;spacingLeft=3;spacingRight=3;rotatable=0;labelPosition=right;points=[];portConstraint=eastwest;strokeColor=inherit;" parent="43" vertex="1"><mxGeometry y="86" width="170" height="4" as="geometry"/></mxCell><mxCell id="158" value="+ pop() : PersonalGoalCard" style="text;html=1;align=left;verticalAlign=middle;resizable=0;points=[];autosize=1;strokeColor=none;fillColor=none;fontSize=11;" parent="43" vertex="1"><mxGeometry y="90" width="170" height="30" as="geometry"/></mxCell><mxCell id="51" value="Shelf" style="swimlane;fontStyle=1;align=center;verticalAlign=top;childLayout=stackLayout;horizontal=1;startSize=26;horizontalStack=0;resizeParent=1;resizeParentMax=0;resizeLast=0;collapsible=1;marginBottom=0;" parent="WIyWlLk6GJQsqaUBKTNV-1" vertex="1"><mxGeometry x="1060" y="749" width="160" height="124" as="geometry"/></mxCell><mxCell id="198" value="- items : ItemCard[6][5]" style="text;html=1;align=left;verticalAlign=middle;resizable=0;points=[];autosize=1;strokeColor=none;fillColor=none;fontSize=11;" parent="51" vertex="1"><mxGeometry y="26" width="160" height="30" as="geometry"/></mxCell><mxCell id="53" value="" style="line;strokeWidth=1;fillColor=none;align=left;verticalAlign=middle;spacingTop=-1;spacingLeft=3;spacingRight=3;rotatable=0;labelPosition=right;points=[];portConstraint=eastwest;strokeColor=inherit;" parent="51" vertex="1"><mxGeometry y="56" width="160" height="8" as="geometry"/></mxCell><mxCell id="205" value="+ getCard(int, int) : ItemCard" style="text;html=1;align=left;verticalAlign=middle;resizable=0;points=[];autosize=1;strokeColor=none;fillColor=none;fontSize=11;" parent="51" vertex="1"><mxGeometry y="64" width="160" height="30" as="geometry"/></mxCell><mxCell id="206" value="+ insert(int, ItemCard) : void" style="text;html=1;align=left;verticalAlign=middle;resizable=0;points=[];autosize=1;strokeColor=none;fillColor=none;fontSize=11;" parent="51" vertex="1"><mxGeometry y="94" width="160" height="30" as="geometry"/></mxCell><mxCell id="55" value="ItemCard" style="swimlane;fontStyle=1;align=center;verticalAlign=top;childLayout=stackLayout;horizontal=1;startSize=30;horizontalStack=0;resizeParent=1;resizeParentMax=0;resizeLast=0;collapsible=1;marginBottom=0;" parent="WIyWlLk6GJQsqaUBKTNV-1" vertex="1"><mxGeometry x="260" y="1040" width="160" height="98" as="geometry"><mxRectangle x="260" y="970" width="110" height="30" as="alternateBounds"/></mxGeometry></mxCell><mxCell id="207" value="&amp;nbsp;- type: ItemType" style="text;html=1;align=left;verticalAlign=middle;resizable=0;points=[];autosize=1;strokeColor=none;fillColor=none;fontSize=11;" parent="55" vertex="1"><mxGeometry y="30" width="160" height="30" as="geometry"/></mxCell><mxCell id="56" value="" style="line;strokeWidth=1;fillColor=none;align=left;verticalAlign=middle;spacingTop=-1;spacingLeft=3;spacingRight=3;rotatable=0;labelPosition=right;points=[];portConstraint=eastwest;strokeColor=inherit;" parent="55" vertex="1"><mxGeometry y="60" width="160" height="8" as="geometry"/></mxCell><mxCell id="223" value="+ getType() : ItemType" style="text;html=1;align=left;verticalAlign=middle;resizable=0;points=[];autosize=1;strokeColor=none;fillColor=none;fontSize=11;" parent="55" vertex="1"><mxGeometry y="68" width="160" height="30" as="geometry"/></mxCell><mxCell id="57" value="CommonGoalCard" style="swimlane;fontStyle=1;align=center;verticalAlign=top;childLayout=stackLayout;horizontal=1;startSize=26;horizontalStack=0;resizeParent=1;resizeParentMax=0;resizeLast=0;collapsible=1;marginBottom=0;" parent="WIyWlLk6GJQsqaUBKTNV-1" vertex="1"><mxGeometry x="660" y="1040" width="245" height="184" as="geometry"/></mxCell><mxCell id="208" value="- type: CommonGoalType" style="text;html=1;align=left;verticalAlign=middle;resizable=0;points=[];autosize=1;strokeColor=none;fillColor=none;fontSize=11;" parent="57" vertex="1"><mxGeometry y="26" width="245" height="30" as="geometry"/></mxCell><mxCell id="209" value="- assignedPoints: Stack&amp;lt;int&amp;gt;" style="text;html=1;align=left;verticalAlign=middle;resizable=0;points=[];autosize=1;strokeColor=none;fillColor=none;fontSize=11;" parent="57" vertex="1"><mxGeometry y="56" width="245" height="30" as="geometry"/></mxCell><mxCell id="58" value="" style="line;strokeWidth=1;fillColor=none;align=left;verticalAlign=middle;spacingTop=-1;spacingLeft=3;spacingRight=3;rotatable=0;labelPosition=right;points=[];portConstraint=eastwest;strokeColor=inherit;" parent="57" vertex="1"><mxGeometry y="86" width="245" height="8" as="geometry"/></mxCell><mxCell id="221" value="+ getCommonGoalType(): CommonGoalType" style="text;html=1;align=left;verticalAlign=middle;resizable=0;points=[];autosize=1;strokeColor=none;fillColor=none;fontSize=11;" parent="57" vertex="1"><mxGeometry y="94" width="245" height="30" as="geometry"/></mxCell><mxCell id="222" value="+ peekPoints(): int" style="text;html=1;align=left;verticalAlign=middle;resizable=0;points=[];autosize=1;strokeColor=none;fillColor=none;fontSize=11;" parent="57" vertex="1"><mxGeometry y="124" width="245" height="30" as="geometry"/></mxCell><mxCell id="224" value="+ popPoints(): int" style="text;html=1;align=left;verticalAlign=middle;resizable=0;points=[];autosize=1;strokeColor=none;fillColor=none;fontSize=11;" parent="57" vertex="1"><mxGeometry y="154" width="245" height="30" as="geometry"/></mxCell><mxCell id="60" value="" style="endArrow=block;endFill=1;html=1;edgeStyle=orthogonalEdgeStyle;align=left;verticalAlign=top;rounded=0;strokeColor=default;exitX=0.5;exitY=0;exitDx=0;exitDy=0;entryX=0.5;entryY=1;entryDx=0;entryDy=0;" parent="WIyWlLk6GJQsqaUBKTNV-1" source="55" target="35" edge="1"><mxGeometry x="-1" relative="1" as="geometry"><mxPoint x="470" y="890" as="sourcePoint"/><mxPoint x="500" y="840" as="targetPoint"/><Array as="points"><mxPoint x="340" y="980"/><mxPoint x="540" y="980"/></Array></mxGeometry></mxCell><mxCell id="62" value="" style="endArrow=block;endFill=1;html=1;edgeStyle=orthogonalEdgeStyle;align=left;verticalAlign=top;rounded=0;strokeColor=default;exitX=0.5;exitY=0;exitDx=0;exitDy=0;entryX=0.5;entryY=1;entryDx=0;entryDy=0;" parent="WIyWlLk6GJQsqaUBKTNV-1" source="31" target="35" edge="1"><mxGeometry x="-1" relative="1" as="geometry"><mxPoint x="560" y="920" as="sourcePoint"/><mxPoint x="540" y="813" as="targetPoint"/></mxGeometry></mxCell><mxCell id="65" value="" style="endArrow=block;endFill=1;html=1;edgeStyle=orthogonalEdgeStyle;align=left;verticalAlign=top;rounded=0;strokeColor=default;exitX=0.5;exitY=0;exitDx=0;exitDy=0;entryX=0.5;entryY=1;entryDx=0;entryDy=0;" parent="WIyWlLk6GJQsqaUBKTNV-1" source="57" target="35" edge="1"><mxGeometry x="-1" relative="1" as="geometry"><mxPoint x="540" y="890" as="sourcePoint"/><mxPoint x="500" y="840" as="targetPoint"/><Array as="points"><mxPoint x="780" y="980"/><mxPoint x="540" y="980"/></Array></mxGeometry></mxCell><mxCell id="66" value="1" style="edgeLabel;resizable=0;html=1;align=left;verticalAlign=bottom;" parent="65" connectable="0" vertex="1"><mxGeometry x="-1" relative="1" as="geometry"/></mxCell><mxCell id="73" value="&lt;&lt;enumeration&gt;&gt; ItemType" style="swimlane;fontStyle=0;childLayout=stackLayout;horizontal=1;startSize=26;fillColor=none;horizontalStack=0;resizeParent=1;resizeParentMax=0;resizeLast=0;collapsible=1;marginBottom=0;fontSize=11;" parent="WIyWlLk6GJQsqaUBKTNV-1" vertex="1"><mxGeometry x="260" y="1260" width="160" height="198" as="geometry"><mxRectangle x="270" y="1080" width="190" height="30" as="alternateBounds"/></mxGeometry></mxCell><mxCell id="74" value="+ Cats" style="text;strokeColor=none;fillColor=none;align=left;verticalAlign=top;spacingLeft=4;spacingRight=4;overflow=hidden;rotatable=0;points=[[0,0.5],[1,0.5]];portConstraint=eastwest;fontSize=11;" parent="73" vertex="1"><mxGeometry y="26" width="160" height="26" as="geometry"/></mxCell><mxCell id="75" value="+ Games" style="text;strokeColor=none;fillColor=none;align=left;verticalAlign=top;spacingLeft=4;spacingRight=4;overflow=hidden;rotatable=0;points=[[0,0.5],[1,0.5]];portConstraint=eastwest;fontSize=11;" parent="73" vertex="1"><mxGeometry y="52" width="160" height="26" as="geometry"/></mxCell><mxCell id="76" value="+ Books" style="text;strokeColor=none;fillColor=none;align=left;verticalAlign=top;spacingLeft=4;spacingRight=4;overflow=hidden;rotatable=0;points=[[0,0.5],[1,0.5]];portConstraint=eastwest;fontSize=11;" parent="73" vertex="1"><mxGeometry y="78" width="160" height="30" as="geometry"/></mxCell><mxCell id="80" value="+ Frames" style="text;strokeColor=none;fillColor=none;align=left;verticalAlign=top;spacingLeft=4;spacingRight=4;overflow=hidden;rotatable=0;points=[[0,0.5],[1,0.5]];portConstraint=eastwest;fontSize=11;" parent="73" vertex="1"><mxGeometry y="108" width="160" height="30" as="geometry"/></mxCell><mxCell id="81" value="+ Trophies" style="text;strokeColor=none;fillColor=none;align=left;verticalAlign=top;spacingLeft=4;spacingRight=4;overflow=hidden;rotatable=0;points=[[0,0.5],[1,0.5]];portConstraint=eastwest;fontSize=11;" parent="73" vertex="1"><mxGeometry y="138" width="160" height="30" as="geometry"/></mxCell><mxCell id="82" value="+ Plants" style="text;strokeColor=none;fillColor=none;align=left;verticalAlign=top;spacingLeft=4;spacingRight=4;overflow=hidden;rotatable=0;points=[[0,0.5],[1,0.5]];portConstraint=eastwest;fontSize=11;" parent="73" vertex="1"><mxGeometry y="168" width="160" height="30" as="geometry"/></mxCell><mxCell id="77" value="" style="endArrow=open;endFill=1;endSize=12;html=1;rounded=0;strokeColor=default;fontSize=11;entryX=0.5;entryY=0;entryDx=0;entryDy=0;exitX=0.5;exitY=1;exitDx=0;exitDy=0;" parent="WIyWlLk6GJQsqaUBKTNV-1" source="55" target="73" edge="1"><mxGeometry width="160" relative="1" as="geometry"><mxPoint x="230" y="1020" as="sourcePoint"/><mxPoint x="390" y="1020" as="targetPoint"/></mxGeometry></mxCell><mxCell id="121" value="&lt;&lt;enumeration&gt;&gt; CommonGoalType" style="swimlane;fontStyle=0;childLayout=stackLayout;horizontal=1;startSize=26;fillColor=none;horizontalStack=0;resizeParent=1;resizeParentMax=0;resizeLast=0;collapsible=1;marginBottom=0;fontSize=11;" parent="WIyWlLk6GJQsqaUBKTNV-1" vertex="1"><mxGeometry x="656.25" y="1260" width="252.5" height="378" as="geometry"><mxRectangle x="270" y="1080" width="190" height="30" as="alternateBounds"/></mxGeometry></mxCell><mxCell id="122" value="+ SixPairs" style="text;strokeColor=none;fillColor=none;align=left;verticalAlign=top;spacingLeft=4;spacingRight=4;overflow=hidden;rotatable=0;points=[[0,0.5],[1,0.5]];portConstraint=eastwest;fontSize=11;" parent="121" vertex="1"><mxGeometry y="26" width="252.5" height="26" as="geometry"/></mxCell><mxCell id="123" value="+ DiagonalFive" style="text;strokeColor=none;fillColor=none;align=left;verticalAlign=top;spacingLeft=4;spacingRight=4;overflow=hidden;rotatable=0;points=[[0,0.5],[1,0.5]];portConstraint=eastwest;fontSize=11;" parent="121" vertex="1"><mxGeometry y="52" width="252.5" height="26" as="geometry"/></mxCell><mxCell id="124" value="+ FourQuartets" style="text;strokeColor=none;fillColor=none;align=left;verticalAlign=top;spacingLeft=4;spacingRight=4;overflow=hidden;rotatable=0;points=[[0,0.5],[1,0.5]];portConstraint=eastwest;fontSize=11;" parent="121" vertex="1"><mxGeometry y="78" width="252.5" height="30" as="geometry"/></mxCell><mxCell id="125" value="+ FourLinesMaxThreeTypes" style="text;strokeColor=none;fillColor=none;align=left;verticalAlign=top;spacingLeft=4;spacingRight=4;overflow=hidden;rotatable=0;points=[[0,0.5],[1,0.5]];portConstraint=eastwest;fontSize=11;" parent="121" vertex="1"><mxGeometry y="108" width="252.5" height="30" as="geometry"/></mxCell><mxCell id="126" value="+ EqualCorners" style="text;strokeColor=none;fillColor=none;align=left;verticalAlign=top;spacingLeft=4;spacingRight=4;overflow=hidden;rotatable=0;points=[[0,0.5],[1,0.5]];portConstraint=eastwest;fontSize=11;" parent="121" vertex="1"><mxGeometry y="138" width="252.5" height="30" as="geometry"/></mxCell><mxCell id="127" value="+ TwoRainbowColumns" style="text;strokeColor=none;fillColor=none;align=left;verticalAlign=top;spacingLeft=4;spacingRight=4;overflow=hidden;rotatable=0;points=[[0,0.5],[1,0.5]];portConstraint=eastwest;fontSize=11;" parent="121" vertex="1"><mxGeometry y="168" width="252.5" height="30" as="geometry"/></mxCell><mxCell id="131" value="+ TwoSquares" style="text;strokeColor=none;fillColor=none;align=left;verticalAlign=top;spacingLeft=4;spacingRight=4;overflow=hidden;rotatable=0;points=[[0,0.5],[1,0.5]];portConstraint=eastwest;fontSize=11;" parent="121" vertex="1"><mxGeometry y="198" width="252.5" height="30" as="geometry"/></mxCell><mxCell id="132" value="+ TwoRainbowLines" style="text;strokeColor=none;fillColor=none;align=left;verticalAlign=top;spacingLeft=4;spacingRight=4;overflow=hidden;rotatable=0;points=[[0,0.5],[1,0.5]];portConstraint=eastwest;fontSize=11;" parent="121" vertex="1"><mxGeometry y="228" width="252.5" height="30" as="geometry"/></mxCell><mxCell id="133" value="+ ThreeColumnsMaxThreeTypes" style="text;strokeColor=none;fillColor=none;align=left;verticalAlign=top;spacingLeft=4;spacingRight=4;overflow=hidden;rotatable=0;points=[[0,0.5],[1,0.5]];portConstraint=eastwest;fontSize=11;" parent="121" vertex="1"><mxGeometry y="258" width="252.5" height="30" as="geometry"/></mxCell><mxCell id="134" value="+ Cross" style="text;strokeColor=none;fillColor=none;align=left;verticalAlign=top;spacingLeft=4;spacingRight=4;overflow=hidden;rotatable=0;points=[[0,0.5],[1,0.5]];portConstraint=eastwest;fontSize=11;" parent="121" vertex="1"><mxGeometry y="288" width="252.5" height="30" as="geometry"/></mxCell><mxCell id="135" value="+ EightEqual" style="text;strokeColor=none;fillColor=none;align=left;verticalAlign=top;spacingLeft=4;spacingRight=4;overflow=hidden;rotatable=0;points=[[0,0.5],[1,0.5]];portConstraint=eastwest;fontSize=11;" parent="121" vertex="1"><mxGeometry y="318" width="252.5" height="30" as="geometry"/></mxCell><mxCell id="136" value="+ Stair" style="text;strokeColor=none;fillColor=none;align=left;verticalAlign=top;spacingLeft=4;spacingRight=4;overflow=hidden;rotatable=0;points=[[0,0.5],[1,0.5]];portConstraint=eastwest;fontSize=11;" parent="121" vertex="1"><mxGeometry y="348" width="252.5" height="30" as="geometry"/></mxCell><mxCell id="128" value="" style="endArrow=open;endFill=1;endSize=12;html=1;rounded=0;strokeColor=default;fontSize=11;exitX=0.5;exitY=1;exitDx=0;exitDy=0;entryX=0.5;entryY=0;entryDx=0;entryDy=0;" parent="WIyWlLk6GJQsqaUBKTNV-1" source="57" target="121" edge="1"><mxGeometry width="160" relative="1" as="geometry"><mxPoint x="530" y="1090" as="sourcePoint"/><mxPoint x="690" y="1090" as="targetPoint"/></mxGeometry></mxCell><mxCell id="180" value="" style="endArrow=open;endFill=1;endSize=12;html=1;rounded=0;strokeColor=default;fontSize=11;entryX=1;entryY=0.5;entryDx=0;entryDy=0;exitX=-0.002;exitY=0.157;exitDx=0;exitDy=0;exitPerimeter=0;" parent="WIyWlLk6GJQsqaUBKTNV-1" source="186" target="zkfFHV4jXpPFQw0GAbJ--0" edge="1"><mxGeometry width="160" relative="1" as="geometry"><mxPoint x="1120" y="490" as="sourcePoint"/><mxPoint x="920" y="830" as="targetPoint"/></mxGeometry></mxCell><mxCell id="181" value="Player" style="swimlane;fontStyle=1;align=center;verticalAlign=top;childLayout=stackLayout;horizontal=1;startSize=26;horizontalStack=0;resizeParent=1;resizeParentMax=0;resizeLast=0;collapsible=1;marginBottom=0;fontSize=11;" parent="WIyWlLk6GJQsqaUBKTNV-1" vertex="1"><mxGeometry x="1160" y="350" width="250" height="216" as="geometry"/></mxCell><mxCell id="182" value="- nickName : String" style="text;strokeColor=none;fillColor=none;align=left;verticalAlign=top;spacingLeft=4;spacingRight=4;overflow=hidden;rotatable=0;points=[[0,0.5],[1,0.5]];portConstraint=eastwest;fontSize=11;" parent="181" vertex="1"><mxGeometry y="26" width="250" height="26" as="geometry"/></mxCell><mxCell id="186" value="- score : int" style="text;strokeColor=none;fillColor=none;align=left;verticalAlign=top;spacingLeft=4;spacingRight=4;overflow=hidden;rotatable=0;points=[[0,0.5],[1,0.5]];portConstraint=eastwest;fontSize=11;" parent="181" vertex="1"><mxGeometry y="52" width="250" height="26" as="geometry"/></mxCell><mxCell id="215" value="- personalGoalCard: PersonalGoalCard" style="text;strokeColor=none;fillColor=none;align=left;verticalAlign=top;spacingLeft=4;spacingRight=4;overflow=hidden;rotatable=0;points=[[0,0.5],[1,0.5]];portConstraint=eastwest;fontSize=11;" parent="181" vertex="1"><mxGeometry y="78" width="250" height="26" as="geometry"/></mxCell><mxCell id="183" value="" style="line;strokeWidth=1;fillColor=none;align=left;verticalAlign=middle;spacingTop=-1;spacingLeft=3;spacingRight=3;rotatable=0;labelPosition=right;points=[];portConstraint=eastwest;strokeColor=inherit;fontSize=11;" parent="181" vertex="1"><mxGeometry y="104" width="250" height="8" as="geometry"/></mxCell><mxCell id="199" value="+ getNick() : String" style="text;strokeColor=none;fillColor=none;align=left;verticalAlign=top;spacingLeft=4;spacingRight=4;overflow=hidden;rotatable=0;points=[[0,0.5],[1,0.5]];portConstraint=eastwest;fontSize=11;" parent="181" vertex="1"><mxGeometry y="112" width="250" height="26" as="geometry"/></mxCell><mxCell id="184" value="+ getScore() : int" style="text;strokeColor=none;fillColor=none;align=left;verticalAlign=top;spacingLeft=4;spacingRight=4;overflow=hidden;rotatable=0;points=[[0,0.5],[1,0.5]];portConstraint=eastwest;fontSize=11;" parent="181" vertex="1"><mxGeometry y="138" width="250" height="26" as="geometry"/></mxCell><mxCell id="225" value="+ setScore()" style="text;strokeColor=none;fillColor=none;align=left;verticalAlign=top;spacingLeft=4;spacingRight=4;overflow=hidden;rotatable=0;points=[[0,0.5],[1,0.5]];portConstraint=eastwest;fontSize=11;" parent="181" vertex="1"><mxGeometry y="164" width="250" height="26" as="geometry"/></mxCell><mxCell id="216" value="+ getPersonalGoalCard() : PersonalGoalCard" style="text;strokeColor=none;fillColor=none;align=left;verticalAlign=top;spacingLeft=4;spacingRight=4;overflow=hidden;rotatable=0;points=[[0,0.5],[1,0.5]];portConstraint=eastwest;fontSize=11;" parent="181" vertex="1"><mxGeometry y="190" width="250" height="26" as="geometry"/></mxCell><mxCell id="195" value="n" style="endArrow=open;html=1;endSize=12;startArrow=diamondThin;startSize=14;startFill=0;edgeStyle=orthogonalEdgeStyle;align=left;verticalAlign=bottom;rounded=0;strokeColor=default;fontSize=11;exitX=0.25;exitY=0;exitDx=0;exitDy=0;entryX=0;entryY=0;entryDx=0;entryDy=0;" parent="WIyWlLk6GJQsqaUBKTNV-1" source="51" target="55" edge="1"><mxGeometry x="-1" y="3" relative="1" as="geometry"><mxPoint x="680" y="910" as="sourcePoint"/><mxPoint x="840" y="910" as="targetPoint"/><Array as="points"><mxPoint x="1100" y="680"/><mxPoint x="260" y="680"/></Array></mxGeometry></mxCell><mxCell id="196" value="n" style="endArrow=open;html=1;endSize=12;startArrow=diamondThin;startSize=14;startFill=0;edgeStyle=orthogonalEdgeStyle;align=left;verticalAlign=bottom;rounded=0;strokeColor=default;fontSize=11;entryX=0.25;entryY=0;entryDx=0;entryDy=0;exitX=0.235;exitY=0.006;exitDx=0;exitDy=0;exitPerimeter=0;" parent="WIyWlLk6GJQsqaUBKTNV-1" source="39" target="55" edge="1"><mxGeometry x="-0.9707" y="-10" relative="1" as="geometry"><mxPoint x="700" y="700" as="sourcePoint"/><mxPoint x="770" y="830" as="targetPoint"/><Array as="points"><mxPoint x="700" y="700"/><mxPoint x="300" y="700"/></Array><mxPoint as="offset"/></mxGeometry></mxCell></root></mxGraphModel></diagram></mxfile>